<?xml version="1.0" standalone="no"?>
<!DOCTYPE svg PUBLIC "-//W3C//DTD SVG 20010904//EN"
 "http://www.w3.org/TR/2001/REC-SVG-20010904/DTD/svg10.dtd">
<svg version="1.0" xmlns="http://www.w3.org/2000/svg"
 width="1024.000000pt" height="1024.000000pt" viewBox="0 0 1024.000000 1024.000000"
 preserveAspectRatio="xMidYMid meet">

<g transform="translate(0.000000,1024.000000) scale(0.100000,-0.100000)"
fill="#000000" stroke="none">
<path d="M54 6331 c-42 -10 -54 -19 -54 -39 0 -14 13 -17 78 -19 89 -3 208 11
247 29 27 12 27 12 -26 25 -59 13 -195 15 -245 4z"/>
<path d="M612 6319 c-28 -5 -82 -22 -118 -39 -37 -16 -73 -30 -80 -30 -7 0
-43 -17 -80 -37 -36 -21 -89 -51 -118 -67 -28 -15 -62 -37 -75 -47 -13 -11
-28 -19 -32 -19 -5 0 -31 -16 -59 -36 l-50 -36 0 -109 c0 -69 4 -109 10 -109
12 0 33 21 100 98 25 29 77 71 115 94 39 23 84 51 100 63 17 12 53 30 80 40
28 10 61 26 74 37 13 10 28 18 34 18 5 0 43 23 85 51 l75 51 48 -22 c26 -13
61 -31 76 -42 l28 -18 -60 2 c-55 2 -66 -1 -130 -40 -38 -24 -81 -45 -95 -49
-14 -3 -29 -11 -35 -17 -16 -18 -136 -106 -145 -106 -5 0 -32 -20 -61 -45 -30
-25 -71 -51 -92 -57 -46 -14 -39 -20 68 -53 75 -23 153 -72 178 -112 12 -19
56 -16 150 9 56 15 112 22 177 22 104 1 101 2 267 -92 88 -50 104 -68 51 -58
-18 3 -77 9 -130 12 -88 6 -98 5 -104 -11 -7 -18 35 -63 114 -122 16 -13 33
-35 37 -50 10 -42 20 -49 91 -69 88 -23 66 -34 -74 -34 -114 0 -202 19 -259
56 -58 37 -184 73 -388 110 -94 17 -267 17 -333 0 l-47 -12 -3 -72 c-3 -76 -1
-79 45 -61 15 6 58 10 95 10 123 -3 604 -138 663 -186 l30 -25 -58 0 c-63 0
-135 9 -325 42 -67 11 -126 18 -129 14 -8 -8 20 -30 72 -57 22 -12 55 -32 73
-46 18 -13 54 -32 80 -40 26 -9 69 -29 95 -45 26 -15 52 -28 58 -28 5 0 47
-20 92 -44 52 -27 117 -52 177 -66 200 -47 323 -84 350 -105 8 -7 22 -14 30
-17 10 -4 19 -31 27 -83 28 -174 164 -384 305 -470 160 -98 272 -135 412 -138
129 -2 218 20 349 85 84 42 113 63 193 144 l95 94 312 1 c175 0 303 4 292 9
-27 11 -127 36 -205 52 -89 18 -140 64 -191 175 -31 68 -44 85 -71 97 -60 25
-6 29 109 7 59 -11 135 -23 168 -27 33 -3 74 -12 90 -19 17 -6 57 -19 90 -27
66 -18 146 -47 129 -48 -6 0 -101 11 -210 25 -251 31 -284 32 -284 5 0 -67 51
-113 136 -124 100 -14 306 -14 343 -1 31 11 46 11 89 0 28 -8 60 -18 71 -24
11 -6 30 -11 43 -12 13 0 17 -3 10 -6 -6 -2 -9 -9 -6 -15 3 -5 -2 -9 -12 -8
-34 4 -62 -11 -67 -36 l-4 -24 921 -2 c1335 -2 1519 0 1676 18 96 12 148 23
180 39 66 34 169 133 220 213 64 100 96 114 315 132 66 6 134 12 150 15 17 2
85 9 153 15 159 13 216 33 295 105 l62 56 18 -23 c11 -13 35 -41 54 -63 58
-66 61 -79 26 -128 -37 -51 -52 -59 -177 -91 -66 -18 -109 -35 -132 -54 -18
-15 -43 -34 -56 -43 -13 -10 -20 -20 -17 -23 15 -16 162 -25 320 -19 96 3 187
3 201 0 19 -5 32 -22 52 -68 71 -164 239 -303 451 -372 152 -50 286 -45 450
15 239 88 413 281 465 515 11 48 20 105 20 126 0 47 13 48 100 6 36 -17 96
-42 134 -55 38 -13 75 -29 82 -35 11 -9 14 -47 14 -165 l0 -154 350 0 350 0
-2 167 -3 168 -55 20 c-30 12 -116 50 -190 87 -143 69 -248 118 -255 118 -2 0
-26 13 -54 29 -27 16 -107 53 -178 81 -70 29 -150 62 -178 75 -27 13 -90 36
-139 52 -83 26 -91 31 -126 78 -42 56 -98 110 -181 177 -68 54 -135 76 -347
117 -99 20 -166 38 -190 53 -52 31 -139 95 -147 108 -3 6 -19 17 -35 25 l-29
15 35 -78 c39 -86 39 -87 72 -131 l23 -31 -24 0 c-13 0 -80 12 -148 26 -68 15
-137 29 -153 32 l-29 5 28 -37 c16 -21 44 -51 64 -67 l36 -29 -35 0 c-51 0
-368 20 -415 26 -137 17 -307 24 -579 24 l-309 0 6 36 c7 41 -6 50 -46 35 -26
-10 -27 -9 -27 20 0 29 -1 30 -37 23 -54 -9 -90 -30 -98 -55 -4 -12 -4 -47 0
-78 5 -45 4 -54 -6 -43 -7 6 -36 12 -64 12 -29 0 -95 6 -147 14 -87 13 -101
19 -155 58 -32 24 -69 49 -83 56 -14 7 -43 23 -64 37 -57 34 -135 44 -348 46
-105 1 -188 6 -188 11 0 25 45 92 74 109 33 19 34 21 40 109 9 113 -3 350 -18
355 -15 5 -450 23 -455 19 -8 -7 91 -114 120 -131 16 -9 29 -21 29 -25 0 -4
-250 -8 -554 -8 l-555 0 -74 -34 c-42 -19 -90 -37 -108 -41 -19 -4 -81 -35
-139 -68 -138 -80 -191 -107 -206 -107 -7 0 -33 -16 -59 -35 -39 -30 -180
-103 -279 -144 -16 -6 -26 -14 -24 -17 3 -2 18 1 32 8 23 10 29 9 36 -2 5 -8
6 -18 4 -22 -3 -5 8 -13 25 -19 17 -6 31 -14 31 -19 0 -8 -84 -20 -150 -20
-55 0 -149 -32 -162 -54 -15 -27 -28 -18 -28 18 0 19 16 64 36 104 53 102 30
139 -39 63 -30 -33 -35 -45 -35 -88 0 -95 -25 -113 -160 -114 -80 0 -122 6
-287 46 -33 8 -72 17 -87 20 l-28 5 0 210 c0 128 -4 211 -10 215 -6 4 -10 53
-10 115 0 59 -3 115 -6 124 -5 14 -60 16 -516 16 l-510 0 6 -47 c4 -27 9 -60
12 -75 6 -30 -4 -35 -34 -18 -9 5 -51 25 -92 44 -41 20 -104 54 -140 77 -84
53 -133 79 -195 101 -164 60 -225 71 -313 57z m3588 -789 c18 -11 13 -16 -29
-24 -34 -6 -34 -6 -16 14 20 23 24 23 45 10z m-269 -55 c6 -32 -14 -99 -38
-126 -8 -10 -44 -22 -81 -29 -37 -6 -87 -16 -111 -21 -24 -6 -74 -12 -110 -14
-267 -18 -380 -29 -476 -46 -60 -11 -146 -22 -190 -25 -87 -4 -77 1 60 30 114
25 237 62 332 102 97 40 230 77 244 68 5 -3 15 -1 22 4 7 5 40 12 75 15 34 3
69 10 77 17 17 14 155 59 175 56 8 0 17 -15 21 -31z m569 -11 c0 -2 -12 -4
-27 -4 -21 0 -24 3 -14 9 13 8 41 5 41 -5z m-447 -91 c-3 -8 -12 -12 -20 -9
-8 3 -19 6 -24 6 -18 0 -8 21 14 29 24 9 39 -3 30 -26z m-648 -202 c-16 -4
-91 -8 -165 -8 -122 0 -127 1 -50 7 120 9 252 9 215 1z m-428 -157 c-3 -3 -12
-4 -19 -1 -8 3 -5 6 6 6 11 1 17 -2 13 -5z m203 -89 c166 -35 357 -66 463 -75
62 -5 146 -18 187 -28 41 -11 101 -23 133 -27 31 -4 57 -12 57 -17 0 -6 -13
-8 -30 -4 -20 3 -59 -4 -111 -20 -76 -24 -84 -25 -150 -12 -52 9 -68 16 -66
28 1 10 -5 14 -21 12 -13 -2 -29 1 -35 6 -13 10 -99 32 -149 38 -18 2 -62 6
-97 9 -43 3 -79 13 -107 30 -23 14 -75 32 -116 40 -40 9 -82 18 -93 22 -18 6
-18 7 5 13 14 3 32 5 40 3 8 -1 49 -10 90 -18z m-290 -514 c36 -11 78 -23 94
-26 50 -11 19 -18 -47 -11 -40 5 -78 16 -103 31 -48 30 -31 31 56 6z m178 -38
c-10 -2 -26 -2 -35 0 -10 3 -2 5 17 5 19 0 27 -2 18 -5z"/>
<path d="M55 6217 c-44 -11 -50 -16 -53 -40 -2 -15 0 -27 4 -27 10 0 134 70
134 75 0 7 -30 4 -85 -8z"/>
<path d="M10080 80 l0 -80 80 0 80 0 0 80 0 80 -80 0 -80 0 0 -80z"/>
</g>
</svg>
