<?xml version="1.0" standalone="no"?>
<!DOCTYPE svg PUBLIC "-//W3C//DTD SVG 20010904//EN"
 "http://www.w3.org/TR/2001/REC-SVG-20010904/DTD/svg10.dtd">
<svg version="1.0" xmlns="http://www.w3.org/2000/svg"
 width="512.000000pt" height="512.000000pt" viewBox="0 0 512.000000 512.000000"
 preserveAspectRatio="xMidYMid meet">

<g transform="translate(0.000000,512.000000) scale(0.100000,-0.100000)"
fill="#000000" stroke="none">
<path d="M1923 3390 c-29 -12 -43 -40 -43 -88 l0 -39 -85 -21 c-130 -32 -203
-73 -540 -302 -270 -184 -314 -211 -339 -206 -16 3 -41 6 -57 6 l-29 0 0 215
c0 241 -6 272 -59 300 -27 14 -75 15 -371 13 l-340 -3 -27 -28 -28 -27 -3
-253 c-2 -152 1 -264 7 -280 6 -15 75 -78 168 -153 124 -100 157 -131 155
-148 -12 -91 -13 -206 -2 -255 31 -140 139 -277 272 -344 201 -100 428 -60
591 105 l67 68 423 0 c449 0 460 1 483 49 15 29 1 77 -26 91 -11 6 -177 10
-420 10 l-402 0 6 28 c15 78 16 114 6 174 -5 37 -13 73 -16 81 -4 11 20 22 93
46 54 17 150 60 213 96 250 139 241 137 793 144 l449 6 34 37 c19 22 34 48 34
62 0 14 4 27 9 30 7 5 406 -42 510 -60 33 -5 32 -6 -39 -30 -178 -60 -305
-208 -341 -398 -5 -27 -11 -51 -13 -53 -2 -2 -32 -12 -67 -22 -35 -11 -115
-37 -177 -60 -110 -40 -217 -64 -335 -77 -38 -4 -65 -12 -78 -25 -26 -26 -25
-80 2 -105 45 -40 272 -6 493 75 188 69 181 68 195 22 53 -178 228 -318 426
-343 81 -10 98 -9 170 9 184 47 319 176 374 357 12 37 21 83 21 102 0 19 4 34
9 34 5 0 11 -54 13 -119 3 -134 14 -160 79 -194 31 -16 68 -17 439 -15 459 3
438 0 481 86 28 57 23 91 -37 226 -78 176 -153 235 -309 244 -77 4 -83 6 -145
52 -218 160 -474 276 -715 324 -159 31 -954 128 -992 121 -45 -8 -101 -61
-109 -104 l-6 -31 -318 0 -318 0 -4 173 -3 174 -29 38 c-16 21 -42 43 -58 49
-23 8 -28 16 -28 43 0 44 -17 79 -47 92 -28 13 -30 13 -60 1z m-1243 -350 l0
-80 -265 0 -265 0 0 80 0 80 265 0 265 0 0 -80z m1318 -72 l-3 -152 -70 -12
c-138 -23 -177 -39 -405 -162 -52 -28 -137 -63 -189 -78 l-95 -27 -30 34 c-16
19 -45 46 -63 61 l-34 26 153 105 c84 57 205 139 268 182 130 88 229 138 310
154 30 6 64 13 75 15 11 2 35 4 53 5 l33 1 -3 -152z m-1318 -201 l0 -42 -71
-34 c-49 -22 -93 -53 -137 -96 l-65 -63 -128 101 c-122 98 -128 104 -128 140
l-1 37 265 0 265 0 0 -43z m3215 -88 c90 -17 246 -74 370 -134 167 -81 169
-84 57 -85 -102 0 -143 -12 -181 -54 -29 -31 -78 -36 -87 -8 -34 102 -113 202
-209 265 -38 24 -51 37 -35 33 14 -3 52 -10 85 -17z m-2964 -103 c101 -31 192
-116 230 -215 25 -65 29 -164 10 -231 -28 -102 -138 -212 -241 -242 -25 -7
-77 -12 -116 -12 -130 2 -252 81 -312 204 -54 111 -39 262 38 368 84 116 250
170 391 128z m2789 -17 c70 -33 146 -109 179 -179 22 -46 26 -69 26 -145 0
-78 -4 -98 -29 -152 -49 -108 -145 -181 -264 -203 -157 -28 -312 51 -384 198
-29 59 -33 76 -33 152 0 72 4 94 27 143 35 74 58 103 120 149 68 51 125 68
223 65 61 -2 93 -8 135 -28z m1087 -260 c48 -18 74 -50 119 -147 24 -51 44
-95 44 -98 0 -2 -162 -4 -360 -4 l-360 0 0 130 0 130 264 0 c163 0 275 -4 293
-11z"/>
<path d="M744 2482 c-231 -82 -244 -391 -20 -493 129 -59 298 16 351 154 21
56 17 155 -8 204 -62 119 -202 178 -323 135z m152 -158 c27 -18 44 -56 44
-100 0 -51 -53 -104 -104 -104 -52 0 -90 23 -111 65 -49 105 72 203 171 139z"/>
<path d="M3508 2490 c-127 -32 -205 -144 -196 -279 11 -151 130 -251 284 -238
140 11 237 119 237 262 -1 73 -19 119 -70 175 -61 69 -167 102 -255 80z m107
-154 c84 -35 93 -153 15 -199 -47 -28 -97 -22 -136 17 -28 28 -34 41 -34 78 0
49 20 79 65 102 37 20 47 20 90 2z"/>
</g>
</svg>
